
<svg xmlns="http://www.w3.org/2000/svg" fill="none" viewBox="0 0 706 96"><path fill="#fff" d="M227.26.57H205V78.1h22.26zM288.47 53.71c9.48-4.89 14.23-13.06 14.23-24.53 0-8.83-2.9-15.81-8.69-20.93-5.8-5.12-13.61-7.68-23.45-7.68h-33.19V78.1h14.09c1.76 0 3.27-.66 4.54-1.97s1.91-2.91 1.91-4.79V57.53h11.2l13.04 20.58h22l-15.67-24.39zm-9.68-16.14c-2.15 1.93-5.33 2.89-9.55 2.89h-11.33V23.97l-12.64-6.2h23.97c4.22 0 7.4.99 9.55 2.96s3.23 4.79 3.23 8.46-1.08 6.46-3.23 8.39zM379.49 11.55C372.11 4.23 362.81.57 351.61.57s-20.5 3.66-27.88 10.98-11.08 16.58-11.08 27.78c0 7.32 1.67 13.94 5.03 19.86 3.35 5.92 8 10.55 13.94 13.89s12.6 5.01 19.99 5.01c11.2 0 20.5-3.66 27.88-10.98s11.08-16.58 11.08-27.79-3.69-20.47-11.08-27.78zM365.1 54.72c-3.56 3.93-8.06 5.9-13.49 5.9s-9.95-1.97-13.56-5.9-5.41-9.06-5.41-15.39q0-6.375 2.55-11.25c1.7-3.25 3.97-5.74 6.81-7.45 2.84-1.72 6.02-2.58 9.55-2.58s6.73.86 9.61 2.58 5.16 4.2 6.81 7.45 2.48 7 2.48 11.25c0 6.33-1.78 11.45-5.35 15.39M456.31.57h14.95V78.1h-17.54l-32.9-41.3v34.4c0 1.22-.32 2.37-.95 3.45s-1.45 1.93-2.45 2.54-2.09.92-3.26.92h-14.14V7.06c0-1.79.61-3.31 1.84-4.58 1.22-1.27 2.74-1.9 4.55-1.9h11.01l47.85 59.2-14.82-25.65V6.64c0-1.69.57-3.12 1.7-4.3S454.67.58 456.3.58zM560.31.57l-28.4 49.76V78.1h-13.25q-3.255 0-5.55-2.4c-1.53-1.6-2.3-3.52-2.3-5.78V49.9L482.41.56h17.72c2.98 0 5.27 1.32 6.9 3.95l11.77 20.58-2.44 17.9 21.1-38.06c1.62-2.91 4.06-4.37 7.31-4.37h15.56zM591.59.57h-21.28L536.5 78.1h22.12l5.98-15.08h32.42L603 78.1h22.54zM571 46.8l9.74-24.81 7.65 19.45 18.09 5.36zM679.5 78.1l-22.38-28.19-8.21 8.74V78.1h-15.58c-1.7 0-3.17-.61-4.39-1.83-1.23-1.22-1.84-2.68-1.84-4.37V.57h16.29q2.265 0 3.9 1.62c1.08 1.08 1.63 2.37 1.63 3.87V23.4l-9.77 20.16 39.95-43h24.36l-31.87 34.25 33.43 43.28h-25.5zM244.21 86.37c0 .33-.09.5-.27.5h-2.51v8.27c0 .18-.22.27-.65.27s-.62-.09-.62-.27v-8.27h-2.5c-.2 0-.31-.18-.31-.55s.1-.57.31-.57h6.27c.18 0 .27.21.27.62zM262.42 90.52c0 .92-.18 1.74-.53 2.48q-.585 1.215-1.71 1.83c-.72.39-1.49.59-2.32.59-.88 0-1.67-.21-2.37-.62-.72-.42-1.27-1.03-1.65-1.8-.37-.74-.55-1.54-.55-2.37 0-1.5.38-2.7 1.13-3.6.81-.96 1.96-1.45 3.44-1.45.87 0 1.66.2 2.35.61.72.41 1.26 1 1.64 1.76.38.77.57 1.62.57 2.57m-1.3-.01c0-1.6-.52-2.73-1.55-3.37-.5-.32-1.07-.47-1.71-.47-1.13 0-1.98.4-2.54 1.19-.49.69-.74 1.62-.74 2.79 0 1.08.27 1.95.8 2.61.58.72 1.4 1.09 2.46 1.09s1.92-.38 2.5-1.14c.52-.68.78-1.58.78-2.69zM279.61 91.25c0 .87-.08 1.56-.25 2.05-.47 1.41-1.63 2.12-3.49 2.12s-2.92-.6-3.42-1.8c-.24-.58-.37-1.38-.37-2.38V86.2c-.04-.33.15-.5.59-.5q.255 0 .45.12c.15.1.23.22.23.38v5.03c0 .69.05 1.21.14 1.54.28 1.01 1.03 1.51 2.27 1.51 1.03 0 1.73-.26 2.11-.78.32-.44.48-1.19.48-2.27V86.2c0-.15.08-.27.23-.35.13-.07.28-.11.44-.11.4 0 .59.16.59.47zM296.62 88.5c0 1.13-.41 1.93-1.22 2.4.71.45 1.06 1.07 1.06 1.87v2.38c0 .2-.2.31-.61.31s-.61-.1-.63-.31v-2.33c0-.19-.08-.42-.25-.7-.29-.48-.8-.73-1.55-.73 0 0-.02.01-.03.02 0 0-.01 0-.01-.02h-2.41v3.74c0 .22-.22.34-.65.34s-.62-.11-.62-.34v-9.38h3.21c.62 0 1.1.03 1.45.09.93.16 1.58.61 1.95 1.36.19.39.29.82.29 1.3zm-1.31.04c0-.37-.09-.7-.28-.99-.2-.3-.47-.5-.82-.6-.21-.06-.6-.09-1.18-.09h-2.05v3.41h2.08c1.5 0 2.26-.58 2.26-1.74zM313.81 92.58c0 .55-.16 1.04-.47 1.48-.3.42-.7.75-1.22.99-.55.25-1.17.38-1.84.38-1.7 0-2.88-.51-3.55-1.51-.24-.36-.38-.74-.42-1.12-.01-.13.07-.23.26-.31.12-.05.25-.08.41-.08.32 0 .49.1.52.29.1.6.52 1.04 1.25 1.32.49.19.98.29 1.47.29 1.01 0 1.71-.27 2.11-.8q.27-.375.27-.81c0-.61-.37-1.06-1.12-1.34-.3-.11-.9-.27-1.79-.48-.78-.18-1.36-.37-1.75-.58-.9-.48-1.36-1.16-1.36-2.07 0-.52.15-.99.44-1.4q.435-.6 1.17-.9c.53-.22 1.11-.32 1.75-.32 1.49 0 2.53.45 3.12 1.34.24.36.36.74.37 1.13 0 .11-.09.2-.28.27-.15.05-.29.08-.42.08-.3 0-.47-.09-.51-.26q-.33-1.44-2.22-1.44c-.58 0-1.06.09-1.44.28-.5.25-.76.63-.76 1.15 0 .48.27.85.82 1.11.22.1.71.24 1.46.41 1.02.23 1.73.43 2.11.61 1.09.5 1.63 1.27 1.63 2.32zM343.88 95.16c.04.09-.06.16-.29.22-.16.03-.3.05-.43.05q-.57 0-.72-.27l-1.33-3.56h-3.48l-1.26 3.52c-.07.18-.32.27-.76.27s-.63-.09-.59-.27l3.49-8.98c.13-.26.39-.38.8-.38.44 0 .72.13.82.38l3.74 9.02zm-3.12-4.58-1.42-3.34-1.3 3.34zM360.47 94.94q0 .36-.33.36c-.42 0-.92-.39-1.5-1.18l-4.49-6.01v6.76c0 .14-.08.26-.25.35-.14.08-.28.12-.43.12-.35 0-.52-.16-.52-.46v-8.8c0-.26.12-.39.37-.39.4 0 .81.29 1.23.86l4.72 6.36v-6.83c0-.29.19-.44.58-.44.42 0 .63.15.63.44v8.87zM378.37 90.46q0 1.71-.63 2.88c-.5.93-1.26 1.52-2.28 1.76-.45.11-.96.16-1.54.16h-3.32v-9.51h3.16c.74 0 1.31.05 1.7.14 1.22.28 2.06 1.05 2.54 2.3.25.65.37 1.41.37 2.27m-1.3-.02c0-1.82-.56-2.94-1.69-3.37-.34-.13-.88-.19-1.64-.19h-1.88v7.28h1.91c1.11 0 1.89-.22 2.34-.67.63-.63.95-1.64.95-3.04zM406.96 86.37c0 .33-.09.5-.27.5h-2.51v8.27c0 .18-.22.27-.65.27s-.62-.09-.62-.27v-8.27h-2.5c-.2 0-.31-.18-.31-.55s.1-.57.31-.57h6.27c.18 0 .27.21.27.62zM423.56 88.5c0 1.13-.41 1.93-1.22 2.4.71.45 1.06 1.07 1.06 1.87v2.38c0 .2-.2.31-.61.31s-.61-.1-.63-.31v-2.33c0-.19-.08-.42-.25-.7-.29-.48-.8-.73-1.55-.73 0 0-.02.01-.03.02 0 0-.01 0-.01-.02h-2.41v3.74c0 .22-.22.34-.65.34s-.62-.11-.62-.34v-9.38h3.21c.62 0 1.1.03 1.45.09.93.16 1.58.61 1.95 1.36.19.39.29.82.29 1.3zm-1.3.04c0-.37-.09-.7-.28-.99-.2-.3-.47-.5-.82-.6-.21-.06-.6-.09-1.18-.09h-2.05v3.41h2.08c1.5 0 2.26-.58 2.26-1.74zM441.42 95.16c.04.09-.06.16-.29.22-.16.03-.3.05-.43.05q-.57 0-.72-.27l-1.33-3.56h-3.48l-1.26 3.52c-.07.18-.32.27-.76.27s-.63-.09-.59-.27l3.49-8.98c.13-.26.39-.38.8-.38.44 0 .72.13.82.38l3.74 9.02zm-3.12-4.58-1.42-3.34-1.3 3.34zM457.04 86s0 .03-.01.05l-3.49 8.89c-.12.29-.34.44-.68.44-.3 0-.5-.15-.62-.44l-3.51-8.91s-.02-.05-.02-.08c0-.21.21-.32.62-.31.37 0 .62.13.77.39l2.89 7.46 2.75-7.44c.14-.26.36-.38.65-.38q.18 0 .39.09c.17.07.26.15.26.25zM473.1 94.67q0 .24-.15.42c-.1.12-.23.18-.38.18h-6.61v-9.51h6.58c.27 0 .4.19.4.58 0 .36-.13.54-.4.54h-5.32v2.92h3.92c.32 0 .48.19.48.58 0 .35-.16.53-.48.53h-3.92v3.24h5.35c.35 0 .53.18.53.52M488.5 94.75q0 .51-.45.51h-5.58V86.2c0-.15.08-.27.23-.35.13-.07.28-.11.44-.11.39 0 .59.16.59.47v7.94h4.32q.45 0 .45.6M505.14 92.58c0 .55-.16 1.04-.47 1.48-.3.42-.7.75-1.22.99-.55.25-1.17.38-1.84.38-1.7 0-2.88-.51-3.55-1.51-.24-.36-.38-.74-.42-1.12-.01-.13.07-.23.26-.31.12-.05.25-.08.41-.08.32 0 .49.1.52.29.1.6.52 1.04 1.25 1.32.49.19.98.29 1.47.29 1.01 0 1.71-.27 2.11-.8q.27-.375.27-.81c0-.61-.37-1.06-1.12-1.34-.3-.11-.9-.27-1.79-.48-.78-.18-1.36-.37-1.75-.58-.9-.48-1.36-1.16-1.36-2.07 0-.52.15-.99.44-1.4q.435-.6 1.17-.9c.53-.22 1.11-.32 1.75-.32 1.49 0 2.53.45 3.12 1.34.24.36.36.74.37 1.13 0 .11-.09.2-.28.27-.15.05-.29.08-.42.08-.3 0-.47-.09-.51-.26q-.33-1.44-2.22-1.44c-.58 0-1.06.09-1.44.28-.5.25-.76.63-.76 1.15 0 .48.27.85.82 1.11.22.1.71.24 1.46.41 1.02.23 1.73.43 2.11.61 1.09.5 1.63 1.27 1.63 2.32zM534.2 88.5c0 1.93-1.19 2.89-3.58 2.89h-1.99v3.54c-.03.29-.21.43-.53.43-.14 0-.29-.03-.46-.11-.2-.09-.3-.2-.28-.32v-9.19h3.15c.62 0 1.1.03 1.45.09.93.16 1.58.61 1.95 1.36.19.39.29.82.29 1.3zm-1.31.04c0-.37-.09-.7-.28-.99-.2-.3-.47-.5-.82-.6-.21-.06-.6-.09-1.18-.09h-1.99v3.41h2.01c1.5 0 2.26-.58 2.26-1.74zM551.35 86s0 .03-.01.05l-3.49 8.89c-.12.29-.34.44-.68.44-.3 0-.5-.15-.62-.44l-3.51-8.91s-.02-.05-.02-.08c0-.21.21-.32.62-.31.37 0 .62.13.77.39l2.89 7.46 2.75-7.44c.14-.26.36-.38.65-.38q.18 0 .39.09c.17.07.26.15.26.25zM567.2 86.37c0 .33-.09.5-.27.5h-2.51v8.27c0 .18-.22.27-.65.27s-.62-.09-.62-.27v-8.27h-2.5c-.2 0-.31-.18-.31-.55s.1-.57.31-.57h6.27c.18 0 .27.21.27.62zM576.96 94.62q0 .3-.21.51c-.13.14-.3.22-.5.22q-.3 0-.51-.21a.73.73 0 0 1-.2-.51q0-.3.21-.51t.51-.21c.2 0 .37.07.5.21q.21.21.21.51zM605.6 94.75q0 .51-.45.51h-5.58V86.2c0-.15.08-.27.23-.35.13-.07.28-.11.44-.11.39 0 .59.16.59.47v7.94h4.32q.45 0 .45.6M620.54 86.37c0 .33-.09.5-.27.5h-2.51v8.27c0 .18-.22.27-.65.27s-.62-.09-.62-.27v-8.27h-2.5c-.2 0-.31-.18-.31-.55s.1-.57.31-.57h6.27c.18 0 .27.21.27.62zM638 90.46q0 1.71-.63 2.88c-.5.93-1.26 1.52-2.28 1.76-.45.11-.96.16-1.54.16h-3.32v-9.51h3.16c.74 0 1.31.05 1.7.14 1.22.28 2.06 1.05 2.54 2.3.25.65.37 1.41.37 2.27m-1.3-.02c0-1.82-.56-2.94-1.69-3.37-.34-.13-.88-.19-1.64-.19h-1.88v7.28h1.91c1.11 0 1.89-.22 2.34-.67.63-.63.95-1.64.95-3.04zM649.18 94.62q0 .3-.21.51c-.13.14-.3.22-.5.22q-.3 0-.51-.21a.73.73 0 0 1-.2-.51q0-.3.21-.51t.51-.21c.2 0 .37.07.5.21q.21.21.21.51zM179 25.442 154 14l7.103 72 12.803-27.123zM164.379 82 162 86.69 204 91zM152.135 14 157 63.09 126.612 71 87 69.21l10.656-49.262zM147.717 66.242 147 77l8-13zM54 23.89l8.838 11.907-.105.203L78 30.433 70.948 4l-6.793 22.99-3.409-.96.177-.051z"/><path fill="#fff" d="m82.359 12-7.361 3.071L79.29 30.55 70 33.803 81.277 85 95 19.617zM158.395 80.632l-33.074-8.503L100.691 71l-14.735 2.123L82 91.54 127.075 95l28.937-8.344L159 87zM62 25l-1.875-2-4.125.993zM53.582 25 53 26.991l1.106-.274L57.157 36l3.622-.684.221-.411z"/><path fill="#fff" d="M53.267 24 42 60.72 46.69 62 62 35.143zM61 39.236 77 75l-9.32-40-5.193 1.723zM59.782 41.877 59.367 41l-.367.664L71.01 77 73 73.792zM53 24l-18 4.603.341 30.615L41.189 61zM35.101 27.928 53 23.497 35.746 18.91 41.94 0 26 18.3l9.101 9.7z"/><path fill="#fff" d="m78.056 74 .246 1.074-2.322.748-.651-1.436-.345.048-3.55 5.333-1.684-4.609L0 84.895 82 91z"/></svg>